<?xml version="1.0" encoding="utf-8"?>
<!-- Generator: Adobe Illustrator 16.0.2, SVG Export Plug-In . SVG Version: 6.00 Build 0)  -->
<!DOCTYPE svg PUBLIC "-//W3C//DTD SVG 1.1//EN" "http://www.w3.org/Graphics/SVG/1.1/DTD/svg11.dtd">
<svg version="1.1" id="Layer_1" xmlns="http://www.w3.org/2000/svg" xmlns:xlink="http://www.w3.org/1999/xlink" x="0px" y="0px"
	 width="1024px" height="1024px" viewBox="654.5 936.5 1024 1024" enable-background="new 654.5 936.5 1024 1024"
	 xml:space="preserve">
<g>
	<path fill="#FFFFFF" d="M1511.888,1960.5c-1.084-2.301-1.864-4.822-3.303-6.871c-98.747-140.288-197.548-280.544-296.346-420.792
		c-2.294-3.255-4.684-6.44-7.408-10.178c-2.486,2.312-4.734,4.211-6.773,6.318c-53.145,54.777-106.357,109.496-159.206,164.556
		c-3.703,3.863-6.381,10.207-6.724,15.578c-5.077,80.129-9.682,160.292-14.577,243.499c-3.005-5.066-4.782-7.859-6.359-10.759
		c-36.219-66.326-72.315-132.715-108.804-198.893c-3.027-5.489-7.934-10.766-13.252-14.037
		c-64.12-39.403-128.479-78.41-192.766-117.536c-2.796-1.7-5.511-3.541-10.959-7.049c18.037-1.322,33.3-2.537,48.578-3.541
		c62.502-4.096,125.013-8.07,187.502-12.345c3.248-0.218,7.15-1.97,9.383-4.307c56.026-58.481,111.866-117.138,167.721-175.781
		c0.865-0.908,1.477-2.045,2.888-4.041c-137.545-106.292-274.832-212.385-412.912-319.093c7.522-11.232,13.967-22.04,21.787-31.729
		c1.985-2.463,8.591-2.63,12.643-1.781c49.83,10.414,99.737,20.537,149.32,32.041c141.964,32.938,283.809,66.396,425.629,99.944
		c8.732,2.066,14.302,0.855,20.779-5.945c47.813-50.181,95.083-100.962,144.769-149.251c25.389-24.674,54.401-46.052,83.713-66.089
		c16.896-11.556,37.655-17.467,56.68-25.919c6.669,0,13.332,0,20,0c16.984,6.664,25.262,19.615,23.459,37.277
		c-1.433,14.078-4.172,28.408-8.957,41.686c-16.237,45.033-42.469,84.608-73.399,120.471
		c-46.53,53.948-95.039,106.2-142.921,158.974c-4.626,5.101-6.684,9.363-5.119,16.659c32.156,149.9,64.214,299.822,95.745,449.855
		c11.418,54.349,21.368,109,32.131,163.485c1.343,6.8,0.695,11.793-5.835,16.104c-8.813,5.822-16.781,12.926-25.107,19.481
		C1513.221,1960.5,1512.556,1960.5,1511.888,1960.5z"/>
</g>
</svg>
